<svg id="Multicolor" xmlns="http://www.w3.org/2000/svg" viewBox="0 0 100 112"><defs><style>.cls-1{fill:#e8f4fa;}.cls-2{fill:#191816;opacity:0.15;}.cls-3{fill:#bf8256;}.cls-4{fill:#dea47a;}.cls-5{fill:#915e3a;}.cls-10,.cls-11,.cls-14,.cls-6{fill:none;}.cls-10,.cls-11,.cls-14,.cls-15,.cls-6{stroke:#191816;}.cls-10,.cls-11,.cls-15,.cls-6{stroke-linecap:round;stroke-linejoin:round;}.cls-7{fill:#6dd627;}.cls-8{fill:#9ceb60;}.cls-9{fill:#f0c2a1;}.cls-10{stroke-dasharray:1.94 1.94;}.cls-11{stroke-dasharray:2.2 2.2;}.cls-12{fill:#ffe500;}.cls-13{fill:#fffacf;}.cls-14{stroke-miterlimit:10;}.cls-15{fill:#ffec60;}</style></defs><title>14- wallet-1</title><g id="Background"><g id="New_Symbol_4" data-name="New Symbol 4"><circle class="cls-1" cx="49.99" cy="56" r="40"/></g></g><g id="Scene"><ellipse class="cls-2" cx="32.77" cy="79.36" rx="13.22" ry="2.88"/><path class="cls-3" d="M31.05,57.51V69.58a2.88,2.88,0,0,0,2.87,2.88H71.3a2.87,2.87,0,0,0,2.87-2.88V57.51Z"/><rect class="cls-4" x="31.05" y="57.51" width="43.13" height="1.73"/><path class="cls-5" d="M65,57.51H33.35V68.4a2.87,2.87,0,0,0,2,2.73l4,1.33H65Z"/><path class="cls-6" d="M31.05,57.51V69.58a2.88,2.88,0,0,0,2.87,2.88H71.3a2.87,2.87,0,0,0,2.87-2.88V57.51Z"/><path class="cls-5" d="M31.05,49.46H74.17V47.73a2.86,2.86,0,0,0-2.87-2.87H33.92a2.87,2.87,0,0,0-2.87,2.87Z"/><path class="cls-3" d="M71.3,44.86H33.92a2.87,2.87,0,0,0-2.87,2.87v1.73a2.88,2.88,0,0,1,2.87-2.88H71.3a2.87,2.87,0,0,1,2.87,2.88V47.73A2.86,2.86,0,0,0,71.3,44.86Z"/><path class="cls-6" d="M31.05,49.46H74.17V47.73a2.86,2.86,0,0,0-2.87-2.87H33.92a2.87,2.87,0,0,0-2.87,2.87Z"/><path class="cls-7" d="M34.88,45l21,7,9.58-2.69L62.33,38.29a1.15,1.15,0,0,0-1.42-.8L34.48,44.92A1.8,1.8,0,0,1,34.88,45Z"/><path class="cls-8" d="M34.88,45l3.53,1.18,24.23-6.81-.31-1.1a1.15,1.15,0,0,0-1.42-.8L34.48,44.92A1.8,1.8,0,0,1,34.88,45Z"/><path class="cls-6" d="M34.88,45l21,7,9.58-2.69L62.33,38.29a1.15,1.15,0,0,0-1.42-.8L34.48,44.92A1.8,1.8,0,0,1,34.88,45Z"/><path class="cls-7" d="M69.57,53.48l-24.91,7L41.55,49.41a1.16,1.16,0,0,1,.8-1.42L65,41.61a1.15,1.15,0,0,1,1.42.8Z"/><path class="cls-8" d="M42.35,48a1.16,1.16,0,0,0-.8,1.42l.31,1.11,24.91-7-.31-1.11A1.14,1.14,0,0,0,65,41.62Z"/><path class="cls-6" d="M69.57,53.48l-24.91,7L41.55,49.41a1.16,1.16,0,0,1,.8-1.42L65,41.61a1.15,1.15,0,0,1,1.42.8Z"/><rect class="cls-3" x="31.05" y="49.46" width="43.13" height="4.6"/><rect class="cls-4" x="31.05" y="49.46" width="43.13" height="1.73"/><path class="cls-5" d="M33.35,54.06H64.73a2.82,2.82,0,0,0-1.68-1.56l-9.1-3H33.35Z"/><rect class="cls-6" x="31.05" y="49.46" width="43.13" height="4.6"/><rect class="cls-4" x="31.05" y="54.06" width="43.13" height="3.45"/><rect class="cls-9" x="31.05" y="54.06" width="43.13" height="1.72"/><path class="cls-3" d="M33.35,57.51H65V55.18a2.78,2.78,0,0,0-.24-1.12H33.35Z"/><rect class="cls-6" x="31.05" y="54.06" width="43.13" height="3.45"/><path class="cls-4" d="M31.05,47.73a2.87,2.87,0,0,1,2.87-2.87,2.76,2.76,0,0,1,1,.16l25.87,8.66a2.82,2.82,0,0,1,1.92,2.68V78.21A2.9,2.9,0,0,1,58.85,81L33,72.31a2.87,2.87,0,0,1-2-2.73Z"/><path class="cls-9" d="M60.75,53.68,34.88,45a2.76,2.76,0,0,0-1-.16,2.87,2.87,0,0,0-2.87,2.87v3.42a2.88,2.88,0,0,1,2.87-2.87,3,3,0,0,1,1,.16L60.75,57.1a2.83,2.83,0,0,1,1.92,2.68V56.36A2.82,2.82,0,0,0,60.75,53.68Z"/><path class="cls-6" d="M31.05,47.73a2.87,2.87,0,0,1,2.87-2.87,2.76,2.76,0,0,1,1,.16l25.87,8.66a2.82,2.82,0,0,1,1.92,2.68V78.21A2.9,2.9,0,0,1,58.85,81L33,72.31a2.87,2.87,0,0,1-2-2.73Z"/><line class="cls-6" x1="33.92" y1="50.57" x2="34.87" y2="50.88"/><line class="cls-10" x1="36.72" y1="51.5" x2="57.92" y2="58.6"/><line class="cls-6" x1="58.85" y1="58.91" x2="59.79" y2="59.23"/><line class="cls-6" x1="47.47" y1="73.16" x2="48.42" y2="73.48"/><line class="cls-11" x1="50.51" y1="74.17" x2="57.8" y2="76.62"/><line class="cls-6" x1="58.85" y1="76.97" x2="59.79" y2="77.28"/><path class="cls-12" d="M23.57,79.36a1.73,1.73,0,0,1,0-3.45h7.48a1.73,1.73,0,0,1,0,3.45Z"/><path class="cls-13" d="M23.57,77.63h7.48a1.7,1.7,0,0,1,1.48.86,1.66,1.66,0,0,0,.24-.86,1.72,1.72,0,0,0-1.72-1.72H23.57a1.72,1.72,0,0,0-1.72,1.72,1.66,1.66,0,0,0,.24.86A1.72,1.72,0,0,1,23.57,77.63Z"/><path class="cls-14" d="M23.57,79.36a1.73,1.73,0,0,1,0-3.45h7.48a1.73,1.73,0,0,1,0,3.45Z"/><path class="cls-12" d="M34.5,79.36a1.73,1.73,0,1,1,0-3.45H42a1.73,1.73,0,1,1,0,3.45Z"/><path class="cls-13" d="M34.5,77.63H42a1.73,1.73,0,0,1,1.49.86,1.66,1.66,0,0,0,.24-.86A1.72,1.72,0,0,0,42,75.91H34.5a1.73,1.73,0,0,0-1.73,1.72,1.66,1.66,0,0,0,.24.86A1.73,1.73,0,0,1,34.5,77.63Z"/><path class="cls-14" d="M34.5,79.36a1.73,1.73,0,1,1,0-3.45H42a1.73,1.73,0,1,1,0,3.45Z"/><path class="cls-12" d="M22.42,75.91a1.73,1.73,0,0,1,0-3.45H29.9a1.73,1.73,0,0,1,0,3.45Z"/><path class="cls-13" d="M22.42,74.18H29.9a1.7,1.7,0,0,1,1.48.86,1.66,1.66,0,0,0,.24-.86,1.72,1.72,0,0,0-1.72-1.72H22.42a1.72,1.72,0,0,0-1.72,1.72,1.66,1.66,0,0,0,.24.86A1.72,1.72,0,0,1,22.42,74.18Z"/><path class="cls-14" d="M22.42,75.91a1.73,1.73,0,0,1,0-3.45H29.9a1.73,1.73,0,0,1,0,3.45Z"/><path class="cls-12" d="M33.35,75.91a1.73,1.73,0,1,1,0-3.45h7.47a1.73,1.73,0,1,1,0,3.45Z"/><path class="cls-13" d="M33.35,74.18h7.47a1.73,1.73,0,0,1,1.49.86,1.66,1.66,0,0,0,.24-.86,1.72,1.72,0,0,0-1.73-1.72H33.35a1.73,1.73,0,0,0-1.73,1.72,1.66,1.66,0,0,0,.24.86A1.73,1.73,0,0,1,33.35,74.18Z"/><path class="cls-14" d="M33.35,75.91a1.73,1.73,0,1,1,0-3.45h7.47a1.73,1.73,0,1,1,0,3.45Z"/><path class="cls-12" d="M24.15,72.46a1.73,1.73,0,1,1,0-3.45h7.47a1.73,1.73,0,1,1,0,3.45Z"/><path class="cls-13" d="M24.15,70.73h7.47a1.73,1.73,0,0,1,1.49.86,1.66,1.66,0,0,0,.24-.86A1.72,1.72,0,0,0,31.62,69H24.15a1.73,1.73,0,0,0-1.73,1.72,1.66,1.66,0,0,0,.24.86A1.73,1.73,0,0,1,24.15,70.73Z"/><path class="cls-14" d="M24.15,72.46a1.73,1.73,0,1,1,0-3.45h7.47a1.73,1.73,0,1,1,0,3.45Z"/><path class="cls-12" d="M35.07,72.46a1.73,1.73,0,0,1,0-3.45h7.48a1.73,1.73,0,0,1,0,3.45Z"/><path class="cls-13" d="M35.07,70.73h7.48a1.7,1.7,0,0,1,1.48.86,1.66,1.66,0,0,0,.24-.86A1.72,1.72,0,0,0,42.55,69H35.07a1.72,1.72,0,0,0-1.72,1.72,1.66,1.66,0,0,0,.24.86A1.72,1.72,0,0,1,35.07,70.73Z"/><path class="cls-14" d="M35.07,72.46a1.73,1.73,0,0,1,0-3.45h7.48a1.73,1.73,0,0,1,0,3.45Z"/><path class="cls-12" d="M25.3,69a1.73,1.73,0,1,1,0-3.45h7.47a1.73,1.73,0,1,1,0,3.45Z"/><path class="cls-13" d="M25.3,67.28h7.47a1.73,1.73,0,0,1,1.49.86,1.66,1.66,0,0,0,.24-.86,1.72,1.72,0,0,0-1.73-1.72H25.3a1.73,1.73,0,0,0-1.73,1.72,1.66,1.66,0,0,0,.24.86A1.73,1.73,0,0,1,25.3,67.28Z"/><path class="cls-14" d="M25.3,69a1.73,1.73,0,1,1,0-3.45h7.47a1.73,1.73,0,1,1,0,3.45Z"/><path class="cls-12" d="M23.57,65.56a1.73,1.73,0,0,1,0-3.45h7.48a1.73,1.73,0,0,1,0,3.45Z"/><path class="cls-13" d="M23.57,63.83h7.48a1.7,1.7,0,0,1,1.48.86,1.66,1.66,0,0,0,.24-.86,1.72,1.72,0,0,0-1.72-1.72H23.57a1.72,1.72,0,0,0-1.72,1.72,1.66,1.66,0,0,0,.24.86A1.72,1.72,0,0,1,23.57,63.83Z"/><path class="cls-14" d="M23.57,65.56a1.73,1.73,0,0,1,0-3.45h7.48a1.73,1.73,0,0,1,0,3.45Z"/><g id="_Group_" data-name="&lt;Group&gt;"><path class="cls-15" d="M83.1,43a2.75,2.75,0,0,1,2.07-2.07l4.15-1a.35.35,0,0,0,0-.68l-4.15-.95a2.75,2.75,0,0,1-2.07-2.07l-1-4.15a.35.35,0,0,0-.34-.27.33.33,0,0,0-.33.27l-1,4.15a2.77,2.77,0,0,1-2.07,2.07l-4.15.95a.35.35,0,0,0,0,.68l4.15,1A2.77,2.77,0,0,1,80.51,43l1,4.15a.33.33,0,0,0,.33.27.35.35,0,0,0,.34-.27Z"/></g><path class="cls-15" d="M20.63,48.88l3.25-1.09a.3.3,0,0,0,.21-.29.31.31,0,0,0-.21-.29l-2.67-.89a1.21,1.21,0,0,1-.77-.77l-.89-2.67a.31.31,0,0,0-.58,0l-.89,2.67a1.21,1.21,0,0,1-.77.77l-2.67.89a.31.31,0,0,0-.21.29.3.3,0,0,0,.21.29l2.67.89a1.23,1.23,0,0,1,.77.77L19,52.13a.31.31,0,0,0,.58,0Z"/></g></svg>